<svg id="Layer_3" data-name="Layer 3" xmlns="http://www.w3.org/2000/svg" viewBox="0 0 223 44"><defs><style>.cls-1{fill:#10bcee;}.cls-2{fill:#fff;}</style></defs><title>logo</title><path class="cls-1" d="M39.563,14.369V1.062a22.738,22.738,0,0,0-5.4-1.037V14.369l2.7-1.459Z" transform="translate(0 0)"/><path class="cls-1" d="M0,3.7V34.715A20.711,20.711,0,0,0,5.913,33.21c2.953-1.03,6.3-2.2,9.837-2.2a18.384,18.384,0,0,1,7.2,1.576V1.756A16.5,16.5,0,0,0,15.749,0C9.775,0,4.121,3.7,0,3.7Z" transform="translate(0 0)"/><path class="cls-1" d="M42.8,2.141V19.825l-5.941-3.21-5.941,3.21V0.218A16.129,16.129,0,0,0,26.2,1.756V32.588a18.383,18.383,0,0,1,7.2-1.576c3.536,0,6.884,1.168,9.837,2.2a20.709,20.709,0,0,0,5.912,1.505V3.7A21.093,21.093,0,0,1,42.8,2.141Z" transform="translate(0 0)"/><path class="cls-1" d="M6.973,36.294A22.585,22.585,0,0,1,0,37.979V44c4.121,0,9.775-3.7,15.749-3.7A9.111,9.111,0,0,1,22.8,43.225h0.152V36.3a13.927,13.927,0,0,0-7.2-2.027C12.759,34.276,9.817,35.3,6.973,36.294Z" transform="translate(0 0)"/><path class="cls-1" d="M33.4,34.276A13.925,13.925,0,0,0,26.2,36.3v6.922h0.152A9.109,9.109,0,0,1,33.4,40.3c5.974,0,11.629,3.7,15.749,3.7v-6.02a22.585,22.585,0,0,1-6.973-1.685C39.333,35.3,36.393,34.276,33.4,34.276Z" transform="translate(0 0)"/><path class="cls-2" d="M102.2,40.3H95.021L78.928,15.853V40.3H71.747V4.341h7.181L95.021,29V4.341H102.2V40.3Z" transform="translate(0 0)"/><path class="cls-2" d="M125.883,13.408a9.155,9.155,0,0,1,3.616,4.533V12.084h7.13V40.3H129.5V34.395a9.292,9.292,0,0,1-3.616,4.559,10.723,10.723,0,0,1-6.111,1.706,12.117,12.117,0,0,1-6.417-1.731A11.691,11.691,0,0,1,108.9,33.91a17.394,17.394,0,0,1-1.6-7.717,17.391,17.391,0,0,1,1.6-7.717,11.691,11.691,0,0,1,4.456-5.018,12.117,12.117,0,0,1,6.417-1.731A10.84,10.84,0,0,1,125.883,13.408Zm-9.269,6.774a8.482,8.482,0,0,0-2.038,6.011,8.388,8.388,0,0,0,2.038,5.985,7.716,7.716,0,0,0,10.77-.052,8.238,8.238,0,0,0,2.114-5.934,8.314,8.314,0,0,0-2.114-5.985,7.1,7.1,0,0,0-5.372-2.216A7.023,7.023,0,0,0,116.614,20.183Z" transform="translate(0 0)"/><path class="cls-2" d="M187.174,14.859q2.979,3.185,2.979,9.042V40.3h-7.13V24.716a7.05,7.05,0,0,0-1.655-5.018,5.964,5.964,0,0,0-4.559-1.757,6.278,6.278,0,0,0-4.787,1.885,7.717,7.717,0,0,0-1.782,5.5V40.3h-7.13V24.716a7.046,7.046,0,0,0-1.656-5.018,5.96,5.96,0,0,0-4.558-1.757,6.278,6.278,0,0,0-4.787,1.885,7.717,7.717,0,0,0-1.782,5.5V40.3h-7.181V12.084h7.181v5.348a8.742,8.742,0,0,1,3.539-4.253,10.449,10.449,0,0,1,5.627-1.5,10.7,10.7,0,0,1,5.933,1.63,9.976,9.976,0,0,1,3.794,4.687A11.244,11.244,0,0,1,187.174,14.859Z" transform="translate(0 0)"/><path class="cls-2" d="M222.745,27.568H202.069q0.152,3.771,2.037,5.553a6.552,6.552,0,0,0,4.686,1.782,6.8,6.8,0,0,0,4.151-1.223,5.416,5.416,0,0,0,2.113-3.311h7.588a12.145,12.145,0,0,1-2.394,5.3,12.508,12.508,0,0,1-4.71,3.667,16.139,16.139,0,0,1-13.725-.433,12.35,12.35,0,0,1-4.991-5.018,15.793,15.793,0,0,1-1.782-7.691,15.941,15.941,0,0,1,1.782-7.717,12.147,12.147,0,0,1,4.991-5.018,15.2,15.2,0,0,1,7.334-1.731,14.867,14.867,0,0,1,7.308,1.731,12.214,12.214,0,0,1,4.838,4.763,13.835,13.835,0,0,1,1.706,6.9A13.587,13.587,0,0,1,222.745,27.568Zm-8.785-8.4a6.893,6.893,0,0,0-4.813-1.783,7.052,7.052,0,0,0-4.889,1.783,7.291,7.291,0,0,0-2.19,5.246h13.7A6.33,6.33,0,0,0,213.961,19.164Z" transform="translate(0 0)"/></svg>